<svg xmlns="http://www.w3.org/2000/svg" width="512" height="512" viewBox="0 0 512 512">
  <defs>
    <linearGradient id="bg" x1="0" y1="0" x2="1" y2="1">
      <stop offset="0" stop-color="#071025"/>
      <stop offset="0.55" stop-color="#0B1B3D"/>
      <stop offset="1" stop-color="#0A2A4A"/>
    </linearGradient>
    <radialGradient id="glow" cx="40%" cy="35%" r="70%">
      <stop offset="0" stop-color="#00D5FF" stop-opacity="0.25"/>
      <stop offset="0.55" stop-color="#2B6CFF" stop-opacity="0.14"/>
      <stop offset="1" stop-color="#00D5FF" stop-opacity="0"/>
    </radialGradient>
  </defs>

  <rect x="32" y="32" width="448" height="448" rx="104" fill="url(#bg)"/>
  <rect x="32" y="32" width="448" height="448" rx="104" fill="url(#glow)"/>

  <g opacity="0.16">
    <path d="M96 360 L360 96" stroke="#00D5FF" stroke-width="10" stroke-linecap="round"/>
    <path d="M132 404 L404 132" stroke="#2B6CFF" stroke-width="6" stroke-linecap="round"/>
    <path d="M108 412 L412 108" stroke="#41FFB3" stroke-width="4" stroke-linecap="round"/>
  </g>

  <circle cx="256" cy="258" r="164" fill="none" stroke="#9DEBFF" stroke-opacity="0.55" stroke-width="14"/>
  <circle cx="256" cy="258" r="142" fill="none" stroke="#00D5FF" stroke-opacity="0.35" stroke-width="6"/>

  <g fill="none" stroke-linecap="round" stroke="#00D5FF">
    <path d="M176 166 C256 108, 336 108, 416 166" stroke-width="10" stroke-opacity="0.50"/>
    <path d="M198 188 C256 146, 314 146, 372 188" stroke-width="8"  stroke-opacity="0.60"/>
    <path d="M222 210 C256 186, 290 186, 324 210" stroke-width="6"  stroke-opacity="0.75"/>
    <circle cx="256" cy="226" r="8" fill="#41FFB3" opacity="0.9"/>
  </g>

  <circle cx="256" cy="288" r="104" fill="#00D5FF" opacity="0.22"/>
  <circle cx="256" cy="288" r="92"  fill="#2B6CFF" opacity="0.22"/>
  <circle cx="256" cy="288" r="30"  fill="#071025" opacity="0.55"/>
  <circle cx="256" cy="288" r="10"  fill="#EAFBFF" opacity="0.85"/>

  <g transform="translate(256 288)">
    <rect x="-16" y="-120" width="32" height="92" rx="16" fill="#EAFBFF" opacity="0.90" transform="rotate(20)"/>
    <rect x="-16" y="-120" width="32" height="92" rx="16" fill="#9DEBFF" opacity="0.90" transform="rotate(110)"/>
    <rect x="-16" y="-120" width="32" height="92" rx="16" fill="#00D5FF" opacity="0.90" transform="rotate(200)"/>
    <rect x="-16" y="-120" width="32" height="92" rx="16" fill="#41FFB3" opacity="0.90" transform="rotate(290)"/>
    <circle cx="0" cy="0" r="72" fill="none" stroke="#EAFBFF" stroke-opacity="0.35" stroke-width="8"/>
  </g>

  <!-- CHIKO (Corbel Bold) -->
  <text x="256" y="472"
        text-anchor="middle"
        font-family="Corbel"
        font-weight="700"
        font-size="72"
        letter-spacing="6"
        fill="#9FD8F4">
    CHIKO
  </text>
</svg>
